HIERARCHY
ROOT root
{
	OFFSET	0	13.1	24.9
	CHANNELS 6  Xposition Yposition Zposition Xrotation Yrotation Zrotation
	JOINT spine_1
	{
		OFFSET	0	9.99999	0
		CHANNELS 3  Xrotation Yrotation Zrotation
		JOINT spine_2
		{
			OFFSET	0	112	-10
			CHANNELS 3  Xrotation Yrotation Zrotation
			JOINT spine_3
			{
				OFFSET	0	206.5	19.3
				CHANNELS 3  Xrotation Yrotation Zrotation
				JOINT spine_4
				{
					OFFSET	0	110.4	14.6
					CHANNELS 3  Xrotation Yrotation Zrotation
					JOINT neck_1
					{
						OFFSET	0	71.8	-50.3
						CHANNELS 3  Xrotation Yrotation Zrotation
						JOINT neck_2
						{
							OFFSET	0	86.2	-25.8
							CHANNELS 3  Xrotation Yrotation Zrotation
							JOINT head_ee
							{
								OFFSET	0	179.8	-8.7
								CHANNELS 3  Xrotation Yrotation Zrotation
								End Site
								{
									OFFSET	1	0	0
								}
							}
						}
					}
					JOINT left_clavicle
					{
						OFFSET	-43.2	22.4	-70.8
						CHANNELS 3  Xrotation Yrotation Zrotation
						JOINT left_shoulder
						{
							OFFSET	-93.9	-5.79999	48.7
							CHANNELS 3  Xrotation Yrotation Zrotation
							JOINT left_elbow
							{
								OFFSET	-291.4	-30.8	15.2
								CHANNELS 3  Xrotation Yrotation Zrotation
								JOINT left_lowarm_twist
								{
									OFFSET	-110.7	-3.89999	13.6
									CHANNELS 3  Xrotation Yrotation Zrotation
									JOINT left_hand
									{
										OFFSET	-110.7	-3.89999	13.6
										CHANNELS 3  Xrotation Yrotation Zrotation
										JOINT left_ee
										{
											OFFSET	-80.8	-5.10001	12.1
											CHANNELS 3  Xrotation Yrotation Zrotation
											End Site
											{
												OFFSET	1	0	0
											}
										}
									}
								}
							}
						}
					}
					JOINT right_clavicle
					{
						OFFSET	43.2	22.4	-70.8
						CHANNELS 3  Xrotation Yrotation Zrotation
						JOINT right_shoulder
						{
							OFFSET	93.9	-5.79999	48.7
							CHANNELS 3  Xrotation Yrotation Zrotation
							JOINT right_elbow
							{
								OFFSET	291.4	-30.8	15.2
								CHANNELS 3  Xrotation Yrotation Zrotation
								JOINT right_lowarm_twist
								{
									OFFSET	110.7	-3.89999	13.6
									CHANNELS 3  Xrotation Yrotation Zrotation
									JOINT right_hand
									{
										OFFSET	110.7	-3.89999	13.6
										CHANNELS 3  Xrotation Yrotation Zrotation
										JOINT right_ee
										{
											OFFSET	80.8	-5.10001	12.1
											CHANNELS 3  Xrotation Yrotation Zrotation
											End Site
											{
												OFFSET	1	0	0
											}
										}
									}
								}
							}
						}
					}
				}
			}
		}
	}
	JOINT left_hip
	{
		OFFSET	-82.8	-127.5	0.300001
		CHANNELS 3  Xrotation Yrotation Zrotation
		JOINT left_knee
		{
			OFFSET	-28.2	-396.7	2.2
			CHANNELS 3  Xrotation Yrotation Zrotation
			JOINT left_ankle
			{
				OFFSET	-11.7	-411.3	35.4
				CHANNELS 3  Xrotation Yrotation Zrotation
				JOINT left_toes
				{
					OFFSET	0	-60	-88.6
					CHANNELS 3  Xrotation Yrotation Zrotation
					JOINT left_foot_ee
					{
						OFFSET	-22.5	-16.5	-42.2
						CHANNELS 3  Xrotation Yrotation Zrotation
						End Site
						{
							OFFSET	1	0	0
						}
					}
				}
			}
		}
	}
	JOINT right_hip
	{
		OFFSET	82.8	-127.5	0.300001
		CHANNELS 3  Xrotation Yrotation Zrotation
		JOINT right_knee
		{
			OFFSET	28.2	-396.7	2.2
			CHANNELS 3  Xrotation Yrotation Zrotation
			JOINT right_ankle
			{
				OFFSET	11.7	-411.3	35.4
				CHANNELS 3  Xrotation Yrotation Zrotation
				JOINT right_toes
				{
					OFFSET	0	-60	-88.6
					CHANNELS 3  Xrotation Yrotation Zrotation
					JOINT right_foot_ee
					{
						OFFSET	22.5	-16.5	-42.2
						CHANNELS 3  Xrotation Yrotation Zrotation
						End Site
						{
							OFFSET	1	0	0
						}
					}
				}
			}
		}
	}
}
MOTION
Frames: 15
Frame Time: 0.02
611.993 751.089 -584.774 -165.232 -70.8186 -173.292 3.29028 1.33865 6.2874 3.31177 0.936688 6.35943 3.40748 -0.0370161 6.42766 3.3512 0.976497 6.35347 -18.0904 5.11257 -8.57889 -18.1464 14.4758 -6.04676 -0.0 0.0 -0.0 -4.56214 24.1959 -3.37238 -7.47903 -20.716 60.3989 0.984737 -26.0031 0.227378 -47.597 -3.79287 4.55136 -1.12149 19.2669 1.06669 -0.0 0.0 -0.0 10.6827 -19.5832 -18.6411 -31.4806 53.3591 -61.037 1.09976 28.5803 -0.280132 57.3878 1.54696 6.86179 -1.764 -24.8647 0.12559 0.0 0.0 0.0 -7.91813 86.9004 6.75579 -5.36872 0.183519 0.803202 18.7431 -31.5065 -3.2961 -3.35046 0.0 0.0 -0.0 0.0 -0.0 6.35862 24.5944 5.96383 -20.8991 -0.283867 -3.17682 34.8471 14.6929 4.67111 -17.3665 0.0 0.0 0.0 0.0 0.0 
612.103 750.415 -589.045 -166.63 -69.6531 -174.539 3.33148 1.28161 6.28948 3.35304 0.879627 6.3579 3.44207 -0.0896568 6.41759 3.38584 0.922928 6.35179 -17.5873 5.05241 -8.73311 -17.6238 14.5123 -6.27397 -0.0 0.0 -0.0 -4.68001 23.9346 -3.59878 -7.50808 -21.4018 60.6322 0.999123 -26.3319 0.233722 -46.4235 -3.65872 4.4829 -1.1625 19.9085 1.10435 -0.0 0.0 -0.0 11.3984 -17.7579 -20.1933 -32.7478 52.9186 -60.247 0.951591 25.2383 -0.213044 56.8419 1.50097 6.80907 -1.81128 -25.1014 0.280011 0.0 0.0 0.0 -9.94182 85.7644 8.78051 -6.35441 0.208989 0.952324 19.4544 -30.525 -3.36184 -2.99257 0.0 0.0 -0.0 0.0 -0.0 6.30596 24.7211 5.99037 -20.293 -0.292041 -3.08417 35.3773 14.2025 4.70936 -18.1596 0.0 0.0 0.0 0.0 0.0 
564.624 760.502 -627.225 85.6286 -80.1672 87.9452 -6.8455 -0.203698 -1.16921 -6.84475 -0.128891 -1.1798 -6.84029 0.261717 -1.1576 -6.84215 0.0756235 -1.1844 -0.0125669 3.27983 8.64632 0.200336 -1.2544 9.65665 -0.0 0.0 -0.0 10.2072 0.195821 20.0732 -2.14735 -23.8432 56.7102 0.862156 -23.1265 0.176402 23.8318 0.215478 -3.0148 -1.19504 20.4502 1.15028 -0.0 0.0 -0.0 8.63909 3.57093 -16.9372 0.125905 9.49462 -59.4476 1.14803 29.6259 -0.30361 -55.3467 4.71038 -4.93291 -2.44283 16.3411 23.9303 0.0 0.0 0.0 -13.4928 -11.1145 -2.79947 1.98286 -0.0867174 -0.291894 3.45466 19.0076 -0.510051 13.0888 -0.0 -0.0 -0.0 0.0 -0.0 -7.71902 18.3855 -3.75344 -11.1111 -0.295667 -1.67689 28.2879 -5.3112 3.70286 -31.2903 0.0 0.0 0.0 0.0 0.0 
563.65 763.075 -628.435 84.987 -80.0744 87.2972 -6.78076 -0.265003 -1.169 -6.78002 -0.190085 -1.18349 -6.7742 0.203673 -1.18123 -6.77614 0.014578 -1.19857 1.07349 4.49528 8.27351 1.25339 1.0461 9.43249 -0.0 0.0 -0.0 10.322 -0.131305 20.3286 -1.8914 -23.6475 56.4926 0.910072 -24.2666 0.19566 24.1221 0.210334 -3.05152 -1.63132 20.3986 -1.45051 -0.0 0.0 -0.0 8.49971 5.7321 -16.6498 -0.654083 9.4451 -59.4098 1.07288 27.9887 -0.267393 -55.8402 4.77043 -4.95296 -2.40531 18.2284 24.4272 0.0 0.0 0.0 -13.9187 -11.0337 -2.60081 2.30328 -0.101678 -0.33878 3.17964 19.9816 -0.471366 13.5113 -0.0 -0.0 -0.0 0.0 -0.0 -7.59688 16.8721 -3.69189 -11.0979 -0.295509 -1.67486 26.5148 -6.92297 3.50437 -34.4285 0.0 0.0 0.0 0.0 0.0 
564.563 762.968 -630.979 84.5571 -80.2657 86.9863 -6.76565 -0.284717 -1.23002 -6.76483 -0.205877 -1.24564 -6.75826 0.208527 -1.2452 -6.76042 0.00926978 -1.2625 0.657195 4.18483 8.38315 0.845629 0.469823 9.50063 -0.0 0.0 -0.0 10.3066 -0.45716 20.3136 -1.93414 -23.6647 56.1061 0.956697 -25.3568 0.215226 24.6812 0.199902 -3.12218 -1.47827 20.5422 -0.480395 -0.0 0.0 -0.0 8.48479 5.9333 -16.6173 -1.07423 9.40571 -59.7188 1.00031 26.3591 -0.23425 -56.4515 4.84504 -4.97707 -2.09184 15.8264 21.1859 0.0 0.0 0.0 -13.9117 -11.7496 -2.7247 3.04599 -0.137365 -0.447138 0.976736 19.8411 -0.145503 13.5285 -0.0 -0.0 -0.0 0.0 -0.0 -7.65608 15.835 -3.63321 -9.38583 -0.271187 -1.4133 21.6398 -15.1854 2.96215 -35.6639 0.0 0.0 0.0 0.0 0.0 
562.995 763.581 -631.064 84.3174 -80.3102 86.9715 -6.63488 -0.291137 -1.34179 -6.6339 -0.205173 -1.3576 -6.62661 0.242345 -1.35146 -6.62916 0.0258868 -1.37276 -0.0864337 4.53532 9.98459 0.186376 -0.113661 11.2237 -0.0 0.0 -0.0 10.3534 -0.677698 20.4223 -1.85127 -23.0457 55.9221 1.06007 -27.7044 0.261409 26.5567 0.15988 -3.35842 -1.34078 20.3606 0.249242 -0.0 0.0 -0.0 8.6457 6.86644 -16.95 -1.22912 9.27311 -59.92 0.995496 26.2492 -0.232115 -56.8546 4.89437 -4.99254 -1.83606 15.296 19.1456 0.0 0.0 0.0 -14.0124 -12.3665 -2.43246 4.01794 -0.186189 -0.588242 0.977084 20.8955 -0.146124 12.8719 -0.0 -0.0 -0.0 0.0 -0.0 -7.40113 15.0927 -3.57243 -8.78839 -0.260861 -1.3222 14.6997 -19.7204 2.10025 -37.3037 0.0 0.0 0.0 0.0 0.0 
565.713 762.932 -632.781 84.2808 -79.9957 87.1066 -6.71063 -0.294961 -1.42713 -6.70952 -0.203561 -1.443 -6.70165 0.27322 -1.43145 -6.70451 0.0437458 -1.45663 -1.88349 3.97399 11.0962 -1.53253 -1.69156 12.2187 -0.0 0.0 -0.0 10.4987 -1.87886 20.7841 -1.96221 -23.1867 55.2558 1.06022 -27.7079 0.261482 27.4821 0.137289 -3.47446 -1.69873 21.08 -1.52879 -0.0 0.0 -0.0 8.6282 6.74503 -16.9141 -3.11134 9.6088 -59.8236 1.00082 26.3705 -0.234473 -57.7899 5.00925 -5.02707 -1.41759 15.107 16.1293 0.0 0.0 0.0 -14.6856 -11.71 -2.47332 5.53216 -0.267015 -0.806398 -0.0349221 21.7533 0.00525267 13.2362 -0.0 -0.0 -0.0 0.0 -0.0 -7.90738 13.4498 -3.39571 -7.72482 -0.240128 -1.16031 6.15364 -25.4494 0.927752 -36.9119 0.0 0.0 0.0 0.0 0.0 
568.071 762.433 -634.468 86.1627 -79.6846 88.9509 -6.70209 -0.144917 -1.39879 -6.701 -0.0556233 -1.40518 -6.69731 0.400959 -1.34792 -6.6998 0.183071 -1.39431 -2.31408 4.24896 10.9019 -1.9804 -0.955897 12.0145 -0.0 0.0 -0.0 10.5725 -1.45955 20.9203 -2.11304 -23.5782 55.24 1.11167 -28.8403 0.285855 28.6657 0.105663 -3.62235 -1.68936 21.2897 -1.3755 -0.0 0.0 -0.0 8.70328 7.72299 -17.0631 -2.94289 9.14246 -60.1915 0.838323 22.552 -0.167151 -58.7939 5.13315 -5.06205 -1.21214 14.1359 14.2939 0.0 0.0 0.0 -14.8396 -13.6566 -2.86063 2.73018 -0.122019 -0.401118 0.10832 17.7832 -0.0160621 14.6438 -0.0 -0.0 -0.0 0.0 -0.0 -8.16716 13.7649 -3.19571 -8.7056 -0.259355 -1.30959 1.61764 -26.2106 0.247728 -37.12 0.0 0.0 0.0 0.0 0.0 
568.88 761.824 -636.95 85.1995 -79.7583 88.0518 -6.51642 -0.230538 -1.43413 -6.51529 -0.138823 -1.44589 -6.50921 0.330694 -1.4144 -6.51199 0.10319 -1.44887 -2.61587 5.954 11.6719 -2.24852 1.57759 13.023 -0.0 0.0 -0.0 10.6486 -3.71567 21.175 -2.32592 -23.7892 54.8313 1.05837 -27.6666 0.260619 30.3973 0.0539044 -3.83747 -2.12658 23.6179 -2.78631 -0.0 0.0 -0.0 8.78999 9.03288 -17.2279 -2.77313 8.56291 -60.1338 0.694599 18.9876 -0.11616 -59.228 5.1869 -5.0765 -1.20207 12.7058 13.618 0.0 0.0 0.0 -16.0048 -11.5456 -2.80484 5.96308 -0.29107 -0.868092 -0.480644 14.9807 0.07088 15.5877 -0.0 -0.0 -0.0 0.0 -0.0 -7.31469 10.6923 -2.59289 -7.32565 -0.231572 -1.09966 -10.7031 -28.304 -1.69548 -37.48 0.0 0.0 0.0 0.0 0.0 
567.107 760.823 -641.612 84.8343 -79.8292 87.939 -6.47002 -0.244304 -1.56063 -6.46867 -0.144515 -1.573 -6.46168 0.364676 -1.53697 -6.46496 0.117396 -1.57526 -4.14882 5.77241 10.9527 -3.82413 2.1531 12.1782 -0.0 0.0 -0.0 10.6292 -4.05022 21.1444 -1.85742 -24.3601 55.1349 1.10686 -28.7354 0.283538 31.1298 0.0300574 -3.92798 -2.06939 23.6382 -2.44903 -0.0 0.0 -0.0 8.53841 9.23908 -16.6846 -3.15389 7.77502 -59.9419 0.646795 17.7657 -0.101088 -59.3458 5.20151 -5.08035 -1.37907 11.5376 14.3465 0.0 0.0 0.0 -16.3677 -11.5602 -2.78457 6.24354 -0.306977 -0.908149 -1.65534 13.5394 0.244117 17.1967 -0.0 -0.0 -0.0 0.0 -0.0 -6.29057 10.2775 -2.54647 -8.51207 -0.255764 -1.28011 -13.3013 -27.3653 -2.10101 -38.2761 0.0 0.0 0.0 0.0 0.0 
567.702 756.393 -641.429 84.8725 -79.5462 88.3864 -6.43962 -0.226998 -1.76247 -6.4379 -0.114405 -1.77333 -6.43065 0.456211 -1.71748 -6.43472 0.179287 -1.76796 -4.88542 5.14828 8.78544 -4.67736 2.81917 9.83584 -0.0 0.0 -0.0 10.5201 -3.96059 20.9078 -1.82491 -24.6782 55.3816 1.18389 -30.3891 0.321546 32.1716 -0.00585646 -4.0562 -1.94752 23.2754 -1.92742 -0.0 0.0 -0.0 8.54817 9.79311 -16.6924 -3.98633 8.4582 -60.085 0.621611 17.1152 -0.09354 -60.685 5.36806 -5.12199 -1.19959 9.9822 12.4328 0.0 0.0 0.0 -16.6959 -11.8722 -3.46622 5.92341 -0.288837 -0.86242 -2.0888 12.6611 0.307944 19.1548 -0.0 -0.0 -0.0 0.0 -0.0 -6.2617 10.1941 -2.59102 -10.404 -0.286593 -1.56877 -13.257 -25.893 -2.07659 -39.2556 0.0 0.0 0.0 0.0 0.0 
568.2 757.698 -642.389 85.7846 -79.5012 89.1652 -6.39655 -0.15677 -1.69222 -6.39496 -0.0487879 -1.69877 -6.39027 0.493537 -1.62625 -6.39389 0.230547 -1.68376 -7.2096 4.32998 9.06903 -6.98249 1.50803 9.93326 -0.0 0.0 -0.0 10.6645 -3.69292 21.2084 -1.11785 -24.2284 55.647 1.14821 -29.6299 0.303701 33.466 -0.0537146 -4.21456 -2.06671 24.3442 -2.08723 -0.0 0.0 -0.0 8.26725 10.8154 -16.0596 -4.81989 8.99617 -60.7412 0.563615 15.5998 -0.0772052 -62.314 5.57186 -5.16737 -1.13537 8.0816 11.1661 0.0 0.0 0.0 -16.9492 -11.8493 -3.4523 5.88493 -0.286673 -0.856916 -3.07793 10.3397 0.45374 20.4315 -0.0 -0.0 -0.0 0.0 -0.0 -5.8117 8.68145 -2.10995 -10.5499 -0.288575 -1.59106 -17.933 -24.754 -2.80255 -39.6984 0.0 0.0 0.0 0.0 0.0 
571.024 759.208 -644.464 85.8613 -79.794 89.3435 -6.27926 -0.137689 -1.74229 -6.27757 -0.0265608 -1.74752 -6.27343 0.526722 -1.66648 -6.27722 0.256963 -1.72873 -7.60355 3.85679 6.0788 -7.5039 2.84315 6.85464 -0.0 0.0 -0.0 10.1341 -3.7027 20.0776 -1.48559 -26.5751 55.9777 1.20792 -30.8939 0.333794 33.8723 -0.069473 -4.26403 -1.78699 21.9158 -1.65038 -0.0 0.0 -0.0 8.52738 9.02845 -16.6655 -4.96162 6.96675 -60.0588 0.625686 17.2207 -0.0947428 -60.1375 5.29986 -5.10544 -1.86138 9.1618 16.6885 0.0 0.0 0.0 -17.059 -12.4422 -3.31458 5.60902 -0.271271 -0.817414 -4.98005 10.3482 0.73686 22.9429 -0.0 -0.0 -0.0 0.0 -0.0 -5.60291 8.8523 -2.04947 -10.3984 -0.286517 -1.56792 -20.5507 -22.1624 -3.17734 -40.1354 0.0 0.0 0.0 0.0 0.0 
573.248 754.165 -646.115 85.9845 -79.8929 89.1863 -6.10279 -0.149209 -1.60236 -6.10137 -0.0469573 -1.60861 -6.09723 0.458726 -1.54254 -6.10049 0.209386 -1.59561 -7.67068 3.73651 2.81151 -7.65285 4.96041 3.586 -0.0 0.0 -0.0 10.3578 -2.41542 20.5087 -0.574593 -26.7866 56.0299 1.13943 -29.4411 0.299369 33.2118 -0.0440338 -4.18354 -1.80501 22.4517 -1.50063 -0.0 0.0 -0.0 8.16671 9.17439 -15.8922 -6.9874 7.50519 -60.6087 0.642266 17.6491 -0.0997108 -60.9185 5.39719 -5.12885 -1.73083 8.5388 15.4972 0.0 0.0 0.0 -17.2206 -11.6663 -3.17683 5.56454 -0.268806 -0.811039 -5.21377 3.87727 0.774028 26.9819 -0.0 -0.0 -0.0 0.0 -0.0 -5.48238 10.3866 -1.88848 -11.4585 -0.299635 -1.73004 -24.1224 -21.425 -3.72063 -40.0538 0.0 0.0 0.0 0.0 0.0 
576.77 749.003 -646.984 85.8506 -80.0036 89.0789 -6.06726 -0.156754 -1.61592 -6.06581 -0.0536243 -1.62262 -6.06142 0.455805 -1.55823 -6.06475 0.204026 -1.61064 -7.01187 3.85987 4.37834 -6.96211 4.00636 5.15465 -0.0 0.0 -0.0 10.3779 -2.25526 20.5448 -0.113824 -27.0393 56.5003 1.15848 -29.8495 0.308794 33.5814 -0.0581538 -4.22862 -1.73569 22.6094 -1.02508 -0.0 0.0 -0.0 8.23545 9.08535 -16.0409 -6.99 7.10437 -60.584 0.600998 16.5793 -0.0875661 -60.6362 5.36198 -5.12055 -1.82392 6.52166 15.252 0.0 0.0 0.0 -17.1969 -11.6764 -3.17422 5.45066 -0.262517 -0.794709 -3.54393 5.81207 0.523261 28.065 -0.0 -0.0 -0.0 0.0 -0.0 -5.41104 10.1825 -1.68368 -12.0547 -0.305694 -1.82132 -24.3398 -20.5756 -3.74197 -40.1707 0.0 0.0 0.0 0.0 0.0 
